<svg width="95" height="115" viewBox="0 0 95 115" fill="none" xmlns="http://www.w3.org/2000/svg">
<path d="M12.1562 36.2049L12.4231 32.7552L14.4247 29.4287L16.0261 27.3343L16.2262 26.0406L15.8259 25.055L14.5582 23.8846L13.7575 22.8374L12.2896 19.018L24.9668 19.326L30.0376 20.1885L32.3729 21.1125L35.4421 22.6525L36.9099 23.0838L42.4478 23.823L44.1826 23.1454L44.3828 22.591L44.4495 21.9133L44.3161 21.3589L44.0492 20.7429L43.849 20.0653L43.7156 18.71L43.849 17.0468L46.3844 9.901L47.5854 7.43693L48.2526 5.58888L48.7197 0.96875L51.7222 3.0632L52.8564 5.15766L53.5904 7.19053L54.1909 9.77779L54.7914 10.517L55.5253 10.7634L56.793 10.3938L62.4644 11.8722L63.3985 12.4267L63.7988 13.9667L53.5904 20.5581L49.854 25.1166L50.0541 26.6566L54.7246 29.0591L56.7263 30.476L61.1966 32.5704L65.3334 32.0776L68.0023 35.7121L71.4718 45.0756L75.742 46.4308L76.7428 48.3405L76.4759 49.3877L76.0756 50.2501L75.6085 52.7758L86.9512 52.8374L90.5542 59.4288L91.4216 61.8312L93.7568 70.1475L90.6876 75.9996L90.5542 78.3405L90.8878 79.0797L92.9562 81.8518L93.8236 84.3158L93.957 86.1639L93.7568 88.628L93.2898 90.9072L92.9562 92.2625L91.7552 94.4801L91.3548 95.0345L90.2873 95.897L89.0863 98.6074L87.485 99.5931L85.6168 104.152L86.3507 108.032L87.7519 109.942L88.8194 110.989L89.153 111.667L89.0863 113.638L89.0196 114.316V114.377L86.1506 113.946L76.4759 109.942L72.4726 109.819L66.2008 112.221L62.8647 112.283L60.5962 110.62L63.5319 105.507L63.1316 102.242L58.5945 98.8538L51.3886 96.3282L43.9824 95.2193L32.7065 96.4514L26.3012 93.3713L19.3621 88.936V88.8744L19.2954 84.8703L18.6282 81.9134L17.7608 81.7286L16.2929 81.667L12.4898 82.4678L11.7559 82.283L11.6224 81.8518L11.8226 81.1741V80.3117L11.2888 79.2645L10.4214 76.3692L9.02028 75.3836L5.35058 73.5355L4.28304 73.2275L3.61582 73.3507L3.08205 73.5971L2.21466 73.5355L1.68089 73.1659L1.01367 71.5027L7.21879 67.437L14.2246 58.5663L14.8918 54.5006L14.4915 53.5766L13.7575 52.1598L12.8234 51.2357L11.8893 50.4965L10.8885 50.0653L8.75339 49.6957L8.68667 44.8908L8.08618 41.2563L8.68667 39.0386L9.55405 37.6218L12.1562 36.2049Z" fill="white"/>
<path d="M12.1562 36.2049L12.4231 32.7552L14.4247 29.4287L16.0261 27.3343L16.2262 26.0406L15.8259 25.055L14.5582 23.8846L13.7575 22.8374L12.2896 19.018L24.9668 19.326L30.0376 20.1885L32.3729 21.1125L35.4421 22.6525L36.9099 23.0838L42.4478 23.823L44.1826 23.1454L44.3828 22.591L44.4495 21.9133L44.3161 21.3589L44.0492 20.7429L43.849 20.0653L43.7156 18.71L43.849 17.0468L46.3844 9.901L47.5854 7.43693L48.2526 5.58888L48.7197 0.96875L51.7222 3.0632L52.8564 5.15766L53.5904 7.19053L54.1909 9.77779L54.7914 10.517L55.5253 10.7634L56.793 10.3938L62.4644 11.8722L63.3985 12.4267L63.7988 13.9667L53.5904 20.5581L49.854 25.1166L50.0541 26.6566L54.7246 29.0591L56.7263 30.476L61.1966 32.5704L65.3334 32.0776L68.0023 35.7121L71.4718 45.0756L75.742 46.4308L76.7428 48.3405L76.4759 49.3877L76.0756 50.2501L75.6085 52.7758L86.9512 52.8374L90.5542 59.4288L91.4216 61.8312L93.7568 70.1475L90.6876 75.9996L90.5542 78.3405L90.8878 79.0797L92.9562 81.8518L93.8236 84.3158L93.957 86.1639L93.7568 88.628L93.2898 90.9072L92.9562 92.2625L91.7552 94.4801L91.3548 95.0345L90.2873 95.897L89.0863 98.6074L87.485 99.5931L85.6168 104.152L86.3507 108.032L87.7519 109.942L88.8194 110.989L89.153 111.667L89.0863 113.638L89.0196 114.316V114.377L86.1506 113.946L76.4759 109.942L72.4726 109.819L66.2008 112.221L62.8647 112.283L60.5962 110.62L63.5319 105.507L63.1316 102.242L58.5945 98.8538L51.3886 96.3282L43.9824 95.2193L32.7065 96.4514L26.3012 93.3713L19.3621 88.936V88.8744L19.2954 84.8703L18.6282 81.9134L17.7608 81.7286L16.2929 81.667L12.4898 82.4678L11.7559 82.283L11.6224 81.8518L11.8226 81.1741V80.3117L11.2888 79.2645L10.4214 76.3692L9.02028 75.3836L5.35058 73.5355L4.28304 73.2275L3.61582 73.3507L3.08205 73.5971L2.21466 73.5355L1.68089 73.1659L1.01367 71.5027L7.21879 67.437L14.2246 58.5663L14.8918 54.5006L14.4915 53.5766L13.7575 52.1598L12.8234 51.2357L11.8893 50.4965L10.8885 50.0653L8.75339 49.6957L8.68667 44.8908L8.08618 41.2563L8.68667 39.0386L9.55405 37.6218L12.1562 36.2049Z" stroke="white" stroke-width="0.5" stroke-linecap="round" stroke-linejoin="round"/>
<path d="M12.1562 36.2049L12.4231 32.7552L14.4247 29.4287L16.0261 27.3343L16.2262 26.0406L15.8259 25.055L14.5582 23.8846L13.7575 22.8374L12.2896 19.018L24.9668 19.326L30.0376 20.1885L32.3729 21.1125L35.4421 22.6525L36.9099 23.0838L42.4478 23.823L44.1826 23.1454L44.3828 22.591L44.4495 21.9133L44.3161 21.3589L44.0492 20.7429L43.849 20.0653L43.7156 18.71L43.849 17.0468L46.3844 9.901L47.5854 7.43693L48.2526 5.58888L48.7197 0.96875L51.7222 3.0632L52.8564 5.15766L53.5904 7.19053L54.1909 9.77779L54.7914 10.517L55.5253 10.7634L56.793 10.3938L62.4644 11.8722L63.3985 12.4267L63.7988 13.9667L53.5904 20.5581L49.854 25.1166L50.0541 26.6566L54.7246 29.0591L56.7263 30.476L61.1966 32.5704L65.3334 32.0776L68.0023 35.7121L71.4718 45.0756L75.742 46.4308L76.7428 48.3405L76.4759 49.3877L76.0756 50.2501L75.6085 52.7758L86.9512 52.8374L90.5542 59.4288L91.4216 61.8312L93.7568 70.1475L90.6876 75.9996L90.5542 78.3405L90.8878 79.0797L92.9562 81.8518L93.8236 84.3158L93.957 86.1639L93.7568 88.628L93.2898 90.9072L92.9562 92.2625L91.7552 94.4801L91.3548 95.0345L90.2873 95.897L89.0863 98.6074L87.485 99.5931L85.6168 104.152L86.3507 108.032L87.7519 109.942L88.8194 110.989L89.153 111.667L89.0863 113.638L89.0196 114.316V114.377L86.1506 113.946L76.4759 109.942L72.4726 109.819L66.2008 112.221L62.8647 112.283L60.5962 110.62L63.5319 105.507L63.1316 102.242L58.5945 98.8538L51.3886 96.3282L43.9824 95.2193L32.7065 96.4514L26.3012 93.3713L19.3621 88.936V88.8744L19.2954 84.8703L18.6282 81.9134L17.7608 81.7286L16.2929 81.667L12.4898 82.4678L11.7559 82.283L11.6224 81.8518L11.8226 81.1741V80.3117L11.2888 79.2645L10.4214 76.3692L9.02028 75.3836L5.35058 73.5355L4.28304 73.2275L3.61582 73.3507L3.08205 73.5971L2.21466 73.5355L1.68089 73.1659L1.01367 71.5027L7.21879 67.437L14.2246 58.5663L14.8918 54.5006L14.4915 53.5766L13.7575 52.1598L12.8234 51.2357L11.8893 50.4965L10.8885 50.0653L8.75339 49.6957L8.68667 44.8908L8.08618 41.2563L8.68667 39.0386L9.55405 37.6218L12.1562 36.2049Z" stroke="black" stroke-opacity="0.2" stroke-width="0.5" stroke-linecap="round" stroke-linejoin="round"/>
</svg>
