<svg width="81" height="90" viewBox="0 0 81 90" fill="none" xmlns="http://www.w3.org/2000/svg">
<path d="M25.2869 88.8964L26.3545 88.034L26.7548 87.4796L27.9558 85.2619L28.2894 83.9067L28.7565 81.6274L28.9566 79.1633L28.8232 77.3153L27.9558 74.8512L25.8874 72.0791L25.5538 71.3399L25.6873 68.9991L28.7565 63.1469L26.4212 54.8307L25.5538 52.4282L21.9509 45.8368L10.6082 45.7752L11.0752 43.2496L11.4755 42.3871L11.7424 41.3399L10.7416 39.4302L6.47141 38.075L3.00188 28.7116L0.333008 25.0771L2.06778 20.0257L2.73499 15.652L3.66909 13.3727L4.53649 11.9559L5.47059 11.3399L6.47141 10.8471L8.47306 10.1078L9.60734 9.49182L11.1419 8.07499L12.3429 6.22693L13.8108 2.22282L15.8792 2.59244L26.3545 0.55957L30.1576 2.53083L35.5621 2.16122L37.0299 2.65404L39.6988 4.25567L41.9006 6.28854L45.8372 9.24541L47.572 11.1551L48.9064 13.0031L49.3735 13.9271L50.3076 16.2064L52.5761 20.0873L56.8463 25.3851L64.3191 26.1859L71.3249 29.0196L74.1272 29.4508L78.8645 32.1613L79.7318 38.3214L78.731 41.4631L80.1322 43.188L79.932 47.3769L79.1313 53.229V53.845L79.0646 59.266L77.3299 64.2557L74.5275 67.2126L72.8595 70.1079L69.6569 71.7711L69.0564 73.0648L69.1231 73.9272L68.7895 75.6521V76.3913L69.1231 78.0545V78.5473L62.4509 82.7363L61.7837 83.4755L61.1165 84.3995L61.5168 84.7075L61.9839 84.9539L62.3842 85.0155L62.184 85.6931L61.4501 85.8163L60.4493 85.6315L59.5819 85.0771L59.1148 84.2763L59.0481 83.0443L58.5811 81.6274L58.0473 80.3338L56.5127 79.2249L55.712 79.1633L55.245 79.533L55.3117 81.2578L55.1115 82.613L54.6445 84.2147L53.9105 85.6931L53.3101 86.2475L52.6428 86.3708L52.1091 86.0627L51.7754 85.6315L51.642 85.0771L51.5086 84.6459L51.2417 83.6603L50.2409 86.0011L49.1733 86.5555L44.5028 88.2188H42.8347L41.567 87.726L39.7655 85.8779L38.5646 84.9539L36.1626 83.9683L35.095 84.0299L34.5613 84.3995L34.7614 85.9395L34.6947 86.7404L34.4278 87.418L34.1609 87.9108L33.8273 89.0196L31.4253 88.034L30.6914 87.9108H29.4237L28.5563 88.034L25.2869 88.8964Z" fill="white"/>
<path d="M25.2869 88.8964L26.3545 88.034L26.7548 87.4796L27.9558 85.2619L28.2894 83.9067L28.7565 81.6274L28.9566 79.1633L28.8232 77.3153L27.9558 74.8512L25.8874 72.0791L25.5538 71.3399L25.6873 68.9991L28.7565 63.1469L26.4212 54.8307L25.5538 52.4282L21.9509 45.8368L10.6082 45.7752L11.0752 43.2496L11.4755 42.3871L11.7424 41.3399L10.7416 39.4302L6.47141 38.075L3.00188 28.7116L0.333008 25.0771L2.06778 20.0257L2.73499 15.652L3.66909 13.3727L4.53649 11.9559L5.47059 11.3399L6.47141 10.8471L8.47306 10.1078L9.60734 9.49182L11.1419 8.07499L12.3429 6.22693L13.8108 2.22282L15.8792 2.59244L26.3545 0.55957L30.1576 2.53083L35.5621 2.16122L37.0299 2.65404L39.6988 4.25567L41.9006 6.28854L45.8372 9.24541L47.572 11.1551L48.9064 13.0031L49.3735 13.9271L50.3076 16.2064L52.5761 20.0873L56.8463 25.3851L64.3191 26.1859L71.3249 29.0196L74.1272 29.4508L78.8645 32.1613L79.7318 38.3214L78.731 41.4631L80.1322 43.188L79.932 47.3769L79.1313 53.229V53.845L79.0646 59.266L77.3299 64.2557L74.5275 67.2126L72.8595 70.1079L69.6569 71.7711L69.0564 73.0648L69.1231 73.9272L68.7895 75.6521V76.3913L69.1231 78.0545V78.5473L62.4509 82.7363L61.7837 83.4755L61.1165 84.3995L61.5168 84.7075L61.9839 84.9539L62.3842 85.0155L62.184 85.6931L61.4501 85.8163L60.4493 85.6315L59.5819 85.0771L59.1148 84.2763L59.0481 83.0443L58.5811 81.6274L58.0473 80.3338L56.5127 79.2249L55.712 79.1633L55.245 79.533L55.3117 81.2578L55.1115 82.613L54.6445 84.2147L53.9105 85.6931L53.3101 86.2475L52.6428 86.3708L52.1091 86.0627L51.7754 85.6315L51.642 85.0771L51.5086 84.6459L51.2417 83.6603L50.2409 86.0011L49.1733 86.5555L44.5028 88.2188H42.8347L41.567 87.726L39.7655 85.8779L38.5646 84.9539L36.1626 83.9683L35.095 84.0299L34.5613 84.3995L34.7614 85.9395L34.6947 86.7404L34.4278 87.418L34.1609 87.9108L33.8273 89.0196L31.4253 88.034L30.6914 87.9108H29.4237L28.5563 88.034L25.2869 88.8964Z" stroke="white" stroke-width="0.5" stroke-linecap="round" stroke-linejoin="round"/>
<path d="M25.2869 88.8964L26.3545 88.034L26.7548 87.4796L27.9558 85.2619L28.2894 83.9067L28.7565 81.6274L28.9566 79.1633L28.8232 77.3153L27.9558 74.8512L25.8874 72.0791L25.5538 71.3399L25.6873 68.9991L28.7565 63.1469L26.4212 54.8307L25.5538 52.4282L21.9509 45.8368L10.6082 45.7752L11.0752 43.2496L11.4755 42.3871L11.7424 41.3399L10.7416 39.4302L6.47141 38.075L3.00188 28.7116L0.333008 25.0771L2.06778 20.0257L2.73499 15.652L3.66909 13.3727L4.53649 11.9559L5.47059 11.3399L6.47141 10.8471L8.47306 10.1078L9.60734 9.49182L11.1419 8.07499L12.3429 6.22693L13.8108 2.22282L15.8792 2.59244L26.3545 0.55957L30.1576 2.53083L35.5621 2.16122L37.0299 2.65404L39.6988 4.25567L41.9006 6.28854L45.8372 9.24541L47.572 11.1551L48.9064 13.0031L49.3735 13.9271L50.3076 16.2064L52.5761 20.0873L56.8463 25.3851L64.3191 26.1859L71.3249 29.0196L74.1272 29.4508L78.8645 32.1613L79.7318 38.3214L78.731 41.4631L80.1322 43.188L79.932 47.3769L79.1313 53.229V53.845L79.0646 59.266L77.3299 64.2557L74.5275 67.2126L72.8595 70.1079L69.6569 71.7711L69.0564 73.0648L69.1231 73.9272L68.7895 75.6521V76.3913L69.1231 78.0545V78.5473L62.4509 82.7363L61.7837 83.4755L61.1165 84.3995L61.5168 84.7075L61.9839 84.9539L62.3842 85.0155L62.184 85.6931L61.4501 85.8163L60.4493 85.6315L59.5819 85.0771L59.1148 84.2763L59.0481 83.0443L58.5811 81.6274L58.0473 80.3338L56.5127 79.2249L55.712 79.1633L55.245 79.533L55.3117 81.2578L55.1115 82.613L54.6445 84.2147L53.9105 85.6931L53.3101 86.2475L52.6428 86.3708L52.1091 86.0627L51.7754 85.6315L51.642 85.0771L51.5086 84.6459L51.2417 83.6603L50.2409 86.0011L49.1733 86.5555L44.5028 88.2188H42.8347L41.567 87.726L39.7655 85.8779L38.5646 84.9539L36.1626 83.9683L35.095 84.0299L34.5613 84.3995L34.7614 85.9395L34.6947 86.7404L34.4278 87.418L34.1609 87.9108L33.8273 89.0196L31.4253 88.034L30.6914 87.9108H29.4237L28.5563 88.034L25.2869 88.8964Z" stroke="black" stroke-opacity="0.2" stroke-width="0.5" stroke-linecap="round" stroke-linejoin="round"/>
</svg>
