<svg width="79" height="65" viewBox="0 0 79 65" fill="none" xmlns="http://www.w3.org/2000/svg">
<path d="M37.8284 63.5568L33.4914 63.0024L32.9577 62.5712L31.9569 61.4624L31.69 60.5383L28.6875 56.3494L27.4198 54.5014L20.0137 56.7806L15.143 60.4151L12.9412 57.2734L10.4725 55.1174L9.53836 53.3925L8.1372 50.3125L7.00292 48.6492L5.53506 46.9244L4.60096 45.1995L4.1339 43.6595V42.4274L4.73439 40.1482L4.60096 36.3905L3.73356 31.8319L3.33323 31.0927L0.597656 27.2118L1.79864 25.0558L2.53258 24.8094L3.73356 24.5013L5.73521 24.3165L6.93622 24.3781L8.40408 24.6245L11.7402 25.6718L18.8794 23.6389L17.9453 21.7909L21.4148 19.6348L24.3506 19.142L29.4881 18.7724L35.4264 11.6882L38.8292 6.20563L39.9635 4.7888L40.9643 3.86478L41.8984 3.55677L44.3004 3.12555L45.2345 3.00235L46.4354 2.75594L47.7032 2.38633L49.8383 1.46231L51.106 1.1543L52.1068 1.2775L53.1076 1.89352L57.5113 5.28161L65.9182 8.4233L67.9866 9.90174L68.7205 10.333L71.723 11.0106L71.9899 16.6779L70.2551 19.8812L68.4536 21.3597L65.6513 24.1317L64.9174 25.0558L64.517 26.103L64.05 27.5198L63.9165 29.6143L64.1167 31.4623L65.5179 32.8792L66.7856 33.4952L68.0533 33.6184L70.4553 33.2488L71.6563 33.372L72.9907 33.8648L74.3251 34.9736L75.793 36.6369L77.1942 37.9921L77.7946 38.8545L77.8614 40.2714L77.3943 41.4418L74.8589 43.9059L70.7221 45.1379L66.1183 50.8669L59.8465 55.795H59.7798L58.9124 58.6903L54.7089 61.9552L45.7682 64.0496H45.5014L38.0285 63.5568H37.8284Z" fill="white"/>
<path d="M37.8284 63.5568L33.4914 63.0024L32.9577 62.5712L31.9569 61.4624L31.69 60.5383L28.6875 56.3494L27.4198 54.5014L20.0137 56.7806L15.143 60.4151L12.9412 57.2734L10.4725 55.1174L9.53836 53.3925L8.1372 50.3125L7.00292 48.6492L5.53506 46.9244L4.60096 45.1995L4.1339 43.6595V42.4274L4.73439 40.1482L4.60096 36.3905L3.73356 31.8319L3.33323 31.0927L0.597656 27.2118L1.79864 25.0558L2.53258 24.8094L3.73356 24.5013L5.73521 24.3165L6.93622 24.3781L8.40408 24.6245L11.7402 25.6718L18.8794 23.6389L17.9453 21.7909L21.4148 19.6348L24.3506 19.142L29.4881 18.7724L35.4264 11.6882L38.8292 6.20563L39.9635 4.7888L40.9643 3.86478L41.8984 3.55677L44.3004 3.12555L45.2345 3.00235L46.4354 2.75594L47.7032 2.38633L49.8383 1.46231L51.106 1.1543L52.1068 1.2775L53.1076 1.89352L57.5113 5.28161L65.9182 8.4233L67.9866 9.90174L68.7205 10.333L71.723 11.0106L71.9899 16.6779L70.2551 19.8812L68.4536 21.3597L65.6513 24.1317L64.9174 25.0558L64.517 26.103L64.05 27.5198L63.9165 29.6143L64.1167 31.4623L65.5179 32.8792L66.7856 33.4952L68.0533 33.6184L70.4553 33.2488L71.6563 33.372L72.9907 33.8648L74.3251 34.9736L75.793 36.6369L77.1942 37.9921L77.7946 38.8545L77.8614 40.2714L77.3943 41.4418L74.8589 43.9059L70.7221 45.1379L66.1183 50.8669L59.8465 55.795H59.7798L58.9124 58.6903L54.7089 61.9552L45.7682 64.0496H45.5014L38.0285 63.5568H37.8284Z" stroke="white" stroke-width="0.5" stroke-linecap="round" stroke-linejoin="round"/>
<path d="M37.8284 63.5568L33.4914 63.0024L32.9577 62.5712L31.9569 61.4624L31.69 60.5383L28.6875 56.3494L27.4198 54.5014L20.0137 56.7806L15.143 60.4151L12.9412 57.2734L10.4725 55.1174L9.53836 53.3925L8.1372 50.3125L7.00292 48.6492L5.53506 46.9244L4.60096 45.1995L4.1339 43.6595V42.4274L4.73439 40.1482L4.60096 36.3905L3.73356 31.8319L3.33323 31.0927L0.597656 27.2118L1.79864 25.0558L2.53258 24.8094L3.73356 24.5013L5.73521 24.3165L6.93622 24.3781L8.40408 24.6245L11.7402 25.6718L18.8794 23.6389L17.9453 21.7909L21.4148 19.6348L24.3506 19.142L29.4881 18.7724L35.4264 11.6882L38.8292 6.20563L39.9635 4.7888L40.9643 3.86478L41.8984 3.55677L44.3004 3.12555L45.2345 3.00235L46.4354 2.75594L47.7032 2.38633L49.8383 1.46231L51.106 1.1543L52.1068 1.2775L53.1076 1.89352L57.5113 5.28161L65.9182 8.4233L67.9866 9.90174L68.7205 10.333L71.723 11.0106L71.9899 16.6779L70.2551 19.8812L68.4536 21.3597L65.6513 24.1317L64.9174 25.0558L64.517 26.103L64.05 27.5198L63.9165 29.6143L64.1167 31.4623L65.5179 32.8792L66.7856 33.4952L68.0533 33.6184L70.4553 33.2488L71.6563 33.372L72.9907 33.8648L74.3251 34.9736L75.793 36.6369L77.1942 37.9921L77.7946 38.8545L77.8614 40.2714L77.3943 41.4418L74.8589 43.9059L70.7221 45.1379L66.1183 50.8669L59.8465 55.795H59.7798L58.9124 58.6903L54.7089 61.9552L45.7682 64.0496H45.5014L38.0285 63.5568H37.8284Z" stroke="black" stroke-opacity="0.2" stroke-width="0.5" stroke-linecap="round" stroke-linejoin="round"/>
</svg>
