<svg width="117" height="90" viewBox="0 0 117 90" fill="none" xmlns="http://www.w3.org/2000/svg">
<path d="M27.3551 0.958984L29.757 1.7598L36.1623 3.36145L37.5635 4.10066L38.4309 4.71667L40.6994 8.78239L45.0363 13.2793L47.038 13.0329L48.0388 12.2937L48.5058 11.8625L49.6401 11.1849L50.2406 11.1233L50.7744 11.4313L51.575 13.2177L51.6418 14.0801L51.9754 14.881L52.309 15.6202L52.4424 16.113V16.5442V16.9138V17.345L52.5759 18.0226L52.8428 18.8235L53.2431 19.6859L54.0437 20.9795L54.4441 21.7187L54.6442 22.458L54.711 23.1356L54.9111 23.7516L58.3807 25.2301L71.4581 26.4005L72.1253 27.6941L72.3922 28.8029L72.5924 29.419L72.926 29.9118L73.393 30.4662L73.7266 31.0822L74.0603 31.6982L74.3939 32.3759L74.8609 33.9775L75.3947 34.7167L78.0636 34.9015L84.1352 29.8502L92.342 39.7065L92.5422 39.5216L94.8774 36.1335L95.3445 34.6551L97.0125 31.3286L100.882 29.727L109.156 31.2054L106.554 32.6223L105.686 34.0391L105.086 36.2568L105.686 39.8913L105.753 44.6962L107.888 45.0658L108.889 45.497L109.823 46.2362L110.757 47.1603L111.491 48.5771L111.891 49.5011L111.224 53.5668L104.218 62.4375L98.0133 66.5032L98.6806 68.1664L99.2143 68.536L100.082 68.5976L100.615 68.3512L101.283 68.228L102.35 68.536L106.02 70.3841L107.421 71.3697L108.288 74.265L108.822 75.3122V76.1747L108.622 76.8523L108.756 77.2835L109.489 77.4683L113.293 76.6675L114.76 76.7291L115.628 76.9139L116.295 79.8708L116.362 83.8749V83.9365L111.424 80.7332L103.952 82.5812L101.416 82.458L99.1476 82.7044L97.2127 84.1213L95.3445 85.9077L93.2094 87.2014L88.1385 88.4334L83.0677 88.9262L72.8593 88.3718L67.1212 86.8934L64.5858 84.1829L63.1179 80.3636L60.6492 75.6818L57.8469 72.725L53.6434 69.8297L49.1063 67.92L45.2365 68.1664L43.5684 69.3369L41.5001 69.8297L39.365 69.6449L37.4968 68.5976L36.2291 66.688V64.9015L36.4959 62.9303L36.0956 60.651L32.8262 57.0165L29.2233 57.4477L25.687 60.1582L22.9514 63.7311L21.8172 54.4293V44.2034L20.9498 39.3984L18.6145 35.1479L14.5445 32.3142L3.20182 26.7701L1.53377 25.5997L1 25.2301L2.46788 19.8091L5.33691 13.6489L9.20677 8.35119L13.8106 5.4559L24.6862 2.80704L27.3551 0.958984Z" fill="white"/>
<path d="M27.3551 0.958984L29.757 1.7598L36.1623 3.36145L37.5635 4.10066L38.4309 4.71667L40.6994 8.78239L45.0363 13.2793L47.038 13.0329L48.0388 12.2937L48.5058 11.8625L49.6401 11.1849L50.2406 11.1233L50.7744 11.4313L51.575 13.2177L51.6418 14.0801L51.9754 14.881L52.309 15.6202L52.4424 16.113V16.5442V16.9138V17.345L52.5759 18.0226L52.8428 18.8235L53.2431 19.6859L54.0437 20.9795L54.4441 21.7187L54.6442 22.458L54.711 23.1356L54.9111 23.7516L58.3807 25.2301L71.4581 26.4005L72.1253 27.6941L72.3922 28.8029L72.5924 29.419L72.926 29.9118L73.393 30.4662L73.7266 31.0822L74.0603 31.6982L74.3939 32.3759L74.8609 33.9775L75.3947 34.7167L78.0636 34.9015L84.1352 29.8502L92.342 39.7065L92.5422 39.5216L94.8774 36.1335L95.3445 34.6551L97.0125 31.3286L100.882 29.727L109.156 31.2054L106.554 32.6223L105.686 34.0391L105.086 36.2568L105.686 39.8913L105.753 44.6962L107.888 45.0658L108.889 45.497L109.823 46.2362L110.757 47.1603L111.491 48.5771L111.891 49.5011L111.224 53.5668L104.218 62.4375L98.0133 66.5032L98.6806 68.1664L99.2143 68.536L100.082 68.5976L100.615 68.3512L101.283 68.228L102.35 68.536L106.02 70.3841L107.421 71.3697L108.288 74.265L108.822 75.3122V76.1747L108.622 76.8523L108.756 77.2835L109.489 77.4683L113.293 76.6675L114.76 76.7291L115.628 76.9139L116.295 79.8708L116.362 83.8749V83.9365L111.424 80.7332L103.952 82.5812L101.416 82.458L99.1476 82.7044L97.2127 84.1213L95.3445 85.9077L93.2094 87.2014L88.1385 88.4334L83.0677 88.9262L72.8593 88.3718L67.1212 86.8934L64.5858 84.1829L63.1179 80.3636L60.6492 75.6818L57.8469 72.725L53.6434 69.8297L49.1063 67.92L45.2365 68.1664L43.5684 69.3369L41.5001 69.8297L39.365 69.6449L37.4968 68.5976L36.2291 66.688V64.9015L36.4959 62.9303L36.0956 60.651L32.8262 57.0165L29.2233 57.4477L25.687 60.1582L22.9514 63.7311L21.8172 54.4293V44.2034L20.9498 39.3984L18.6145 35.1479L14.5445 32.3142L3.20182 26.7701L1.53377 25.5997L1 25.2301L2.46788 19.8091L5.33691 13.6489L9.20677 8.35119L13.8106 5.4559L24.6862 2.80704L27.3551 0.958984Z" stroke="white" stroke-width="0.5" stroke-linecap="round" stroke-linejoin="round"/>
<path d="M27.3551 0.958984L29.757 1.7598L36.1623 3.36145L37.5635 4.10066L38.4309 4.71667L40.6994 8.78239L45.0363 13.2793L47.038 13.0329L48.0388 12.2937L48.5058 11.8625L49.6401 11.1849L50.2406 11.1233L50.7744 11.4313L51.575 13.2177L51.6418 14.0801L51.9754 14.881L52.309 15.6202L52.4424 16.113V16.5442V16.9138V17.345L52.5759 18.0226L52.8428 18.8235L53.2431 19.6859L54.0437 20.9795L54.4441 21.7187L54.6442 22.458L54.711 23.1356L54.9111 23.7516L58.3807 25.2301L71.4581 26.4005L72.1253 27.6941L72.3922 28.8029L72.5924 29.419L72.926 29.9118L73.393 30.4662L73.7266 31.0822L74.0603 31.6982L74.3939 32.3759L74.8609 33.9775L75.3947 34.7167L78.0636 34.9015L84.1352 29.8502L92.342 39.7065L92.5422 39.5216L94.8774 36.1335L95.3445 34.6551L97.0125 31.3286L100.882 29.727L109.156 31.2054L106.554 32.6223L105.686 34.0391L105.086 36.2568L105.686 39.8913L105.753 44.6962L107.888 45.0658L108.889 45.497L109.823 46.2362L110.757 47.1603L111.491 48.5771L111.891 49.5011L111.224 53.5668L104.218 62.4375L98.0133 66.5032L98.6806 68.1664L99.2143 68.536L100.082 68.5976L100.615 68.3512L101.283 68.228L102.35 68.536L106.02 70.3841L107.421 71.3697L108.288 74.265L108.822 75.3122V76.1747L108.622 76.8523L108.756 77.2835L109.489 77.4683L113.293 76.6675L114.76 76.7291L115.628 76.9139L116.295 79.8708L116.362 83.8749V83.9365L111.424 80.7332L103.952 82.5812L101.416 82.458L99.1476 82.7044L97.2127 84.1213L95.3445 85.9077L93.2094 87.2014L88.1385 88.4334L83.0677 88.9262L72.8593 88.3718L67.1212 86.8934L64.5858 84.1829L63.1179 80.3636L60.6492 75.6818L57.8469 72.725L53.6434 69.8297L49.1063 67.92L45.2365 68.1664L43.5684 69.3369L41.5001 69.8297L39.365 69.6449L37.4968 68.5976L36.2291 66.688V64.9015L36.4959 62.9303L36.0956 60.651L32.8262 57.0165L29.2233 57.4477L25.687 60.1582L22.9514 63.7311L21.8172 54.4293V44.2034L20.9498 39.3984L18.6145 35.1479L14.5445 32.3142L3.20182 26.7701L1.53377 25.5997L1 25.2301L2.46788 19.8091L5.33691 13.6489L9.20677 8.35119L13.8106 5.4559L24.6862 2.80704L27.3551 0.958984Z" stroke="black" stroke-opacity="0.2" stroke-width="0.5" stroke-linecap="round" stroke-linejoin="round"/>
</svg>
