<svg width="222" height="97" viewBox="0 0 222 97" fill="none" xmlns="http://www.w3.org/2000/svg">
<path d="M4.019 95.3767V95.3151L4.08573 94.6375L4.15245 92.6662L3.81884 91.9886L2.75129 90.9414L1.35013 89.0317L0.616211 85.1508L2.48441 80.5923L4.08573 79.6067L5.28673 76.8962L8.55609 76.0338L9.42346 75.9106H10.6912L11.4251 76.0338L13.8271 77.0194L14.1607 75.9106L14.4276 75.4177L14.6945 74.7402L14.7612 73.9393L14.561 72.3993L15.0948 72.0297L16.1624 71.9681L18.5643 72.9537L19.7653 73.8777L21.5668 75.7258L22.8345 76.2186H24.5026L29.1731 74.5553L30.2406 74.0009L31.2415 71.6601L31.5084 72.6457L31.6418 73.0769L31.7752 73.6313L32.1088 74.0625L32.6426 74.3705L33.3098 74.2473L33.9103 73.6929L34.6443 72.2145L35.1113 70.6128L35.3115 69.2576L35.2448 67.5327L35.7118 67.1631L36.5125 67.2247L38.0471 68.3336L38.5809 69.6272L39.0479 71.044L39.1146 72.2761L39.5817 73.0769L40.4491 73.6313L41.4499 73.8161L42.1838 73.6929L42.384 73.0153L41.9837 72.9537L41.5166 72.7073L41.1163 72.3993L41.7835 71.4752L42.4507 70.736L49.1229 66.5471L50.7909 68.3952L51.1245 70.5512L53.1262 73.2617L54.2605 74.0009L56.6624 74.4321L60.7992 75.1713L62.2003 74.5553L63.2012 73.6313L64.0685 72.5225L66.3371 71.044L68.2053 70.3664L71.4746 69.7504L72.6089 69.3192L73.2761 68.6416V67.2863L73.2094 66.7935L73.076 66.3623L72.8758 65.9311V65.3151L73.0093 64.5759L79.4145 55.582L82.2836 53.8572L83.5513 51.7627L83.6847 49.9146L85.1526 47.3274L88.2218 44.3705L91.0908 40.12L90.7572 33.7134L93.5595 31.0645L95.2943 26.506L95.6946 24.658L96.0282 20.9618L96.6287 19.7914L99.1642 17.2657L100.565 16.1569L103.434 14.3089L105.569 13.2616L108.172 11.66L104.769 7.59429L104.835 4.6374L106.57 2.66615L109.106 0.263672L120.515 6.23904L126.32 10.6744L128.588 11.968L129.99 13.4465L131.057 14.1241L131.925 14.4937L132.725 14.6785L133.459 14.7401L134.26 14.6785H135.261L136.328 14.8017L138.997 15.6641L141.666 15.9721L142.733 18.929L145.936 21.9475L148.939 24.1035L153.609 26.506L156.211 27.4916L157.212 27.738H158.146L159.08 27.43L160.615 26.6908L162.149 26.0748L166.353 28.1693L168.021 29.9557L168.822 31.1261L169.089 33.0974L169.489 34.7606L170.556 35.9311L170.957 36.9167V38.8879L171.157 39.9968L171.624 41.4752L171.824 42.3376L171.424 43.8161L170.356 45.3561L171.157 48.313L172.892 49.1138L178.296 49.9146L179.163 50.4691L180.431 51.4547L181.899 53.6724L183.033 54.9044L183.834 55.3356L184.902 55.5204L185.635 56.0132L186.57 57.1221L188.304 58.1077L189.639 60.3253L190.039 61.4958L191.907 64.8839L192.308 65.8079L193.042 69.7504L194.243 72.2145L195.243 73.2001L196.244 73.6929L199.247 73.0153L205.919 73.6313L207.587 74.0009L208.521 74.1241L215.193 73.6313L215.794 73.4465L216.461 73.0769L219.53 71.7833L221.265 79.1755L220.865 79.5451L220.331 79.8531L219.263 80.1611L218.93 80.7771L218.863 80.8387L177.829 83.0564L154.476 80.5923L134.126 70.7976L117.379 59.7093L111.308 58.8469L107.638 59.9557L105.036 61.8654L102.634 64.1446L99.6979 66.2391L96.3619 67.2247L89.6897 66.9783L86.4203 67.2863L80.3486 70.9208L75.8116 82.1324L71.2745 85.9516L64.4021 87.7381L43.8519 89.5861L32.4424 92.4198L28.5059 92.7894L26.7044 92.543L23.0347 91.4958L22.7678 91.4342L21.3666 91.2494L20.6994 90.9414L19.2316 89.7094L18.4976 89.6478L17.5635 90.387L17.1632 91.3726L17.0965 92.235L17.0297 92.6046V93.0358L16.7628 94.1447L16.1624 95.3767L15.295 96.2391L14.6278 96.3007L12.893 95.6231L12.2258 95.4383L5.01983 95.4999L4.019 95.3767Z" fill="white"/>
<path d="M4.019 95.3767V95.3151L4.08573 94.6375L4.15245 92.6662L3.81884 91.9886L2.75129 90.9414L1.35013 89.0317L0.616211 85.1508L2.48441 80.5923L4.08573 79.6067L5.28673 76.8962L8.55609 76.0338L9.42346 75.9106H10.6912L11.4251 76.0338L13.8271 77.0194L14.1607 75.9106L14.4276 75.4177L14.6945 74.7402L14.7612 73.9393L14.561 72.3993L15.0948 72.0297L16.1624 71.9681L18.5643 72.9537L19.7653 73.8777L21.5668 75.7258L22.8345 76.2186H24.5026L29.1731 74.5553L30.2406 74.0009L31.2415 71.6601L31.5084 72.6457L31.6418 73.0769L31.7752 73.6313L32.1088 74.0625L32.6426 74.3705L33.3098 74.2473L33.9103 73.6929L34.6443 72.2145L35.1113 70.6128L35.3115 69.2576L35.2448 67.5327L35.7118 67.1631L36.5125 67.2247L38.0471 68.3336L38.5809 69.6272L39.0479 71.044L39.1146 72.2761L39.5817 73.0769L40.4491 73.6313L41.4499 73.8161L42.1838 73.6929L42.384 73.0153L41.9837 72.9537L41.5166 72.7073L41.1163 72.3993L41.7835 71.4752L42.4507 70.736L49.1229 66.5471L50.7909 68.3952L51.1245 70.5512L53.1262 73.2617L54.2605 74.0009L56.6624 74.4321L60.7992 75.1713L62.2003 74.5553L63.2012 73.6313L64.0685 72.5225L66.3371 71.044L68.2053 70.3664L71.4746 69.7504L72.6089 69.3192L73.2761 68.6416V67.2863L73.2094 66.7935L73.076 66.3623L72.8758 65.9311V65.3151L73.0093 64.5759L79.4145 55.582L82.2836 53.8572L83.5513 51.7627L83.6847 49.9146L85.1526 47.3274L88.2218 44.3705L91.0908 40.12L90.7572 33.7134L93.5595 31.0645L95.2943 26.506L95.6946 24.658L96.0282 20.9618L96.6287 19.7914L99.1642 17.2657L100.565 16.1569L103.434 14.3089L105.569 13.2616L108.172 11.66L104.769 7.59429L104.835 4.6374L106.57 2.66615L109.106 0.263672L120.515 6.23904L126.32 10.6744L128.588 11.968L129.99 13.4465L131.057 14.1241L131.925 14.4937L132.725 14.6785L133.459 14.7401L134.26 14.6785H135.261L136.328 14.8017L138.997 15.6641L141.666 15.9721L142.733 18.929L145.936 21.9475L148.939 24.1035L153.609 26.506L156.211 27.4916L157.212 27.738H158.146L159.08 27.43L160.615 26.6908L162.149 26.0748L166.353 28.1693L168.021 29.9557L168.822 31.1261L169.089 33.0974L169.489 34.7606L170.556 35.9311L170.957 36.9167V38.8879L171.157 39.9968L171.624 41.4752L171.824 42.3376L171.424 43.8161L170.356 45.3561L171.157 48.313L172.892 49.1138L178.296 49.9146L179.163 50.4691L180.431 51.4547L181.899 53.6724L183.033 54.9044L183.834 55.3356L184.902 55.5204L185.635 56.0132L186.57 57.1221L188.304 58.1077L189.639 60.3253L190.039 61.4958L191.907 64.8839L192.308 65.8079L193.042 69.7504L194.243 72.2145L195.243 73.2001L196.244 73.6929L199.247 73.0153L205.919 73.6313L207.587 74.0009L208.521 74.1241L215.193 73.6313L215.794 73.4465L216.461 73.0769L219.53 71.7833L221.265 79.1755L220.865 79.5451L220.331 79.8531L219.263 80.1611L218.93 80.7771L218.863 80.8387L177.829 83.0564L154.476 80.5923L134.126 70.7976L117.379 59.7093L111.308 58.8469L107.638 59.9557L105.036 61.8654L102.634 64.1446L99.6979 66.2391L96.3619 67.2247L89.6897 66.9783L86.4203 67.2863L80.3486 70.9208L75.8116 82.1324L71.2745 85.9516L64.4021 87.7381L43.8519 89.5861L32.4424 92.4198L28.5059 92.7894L26.7044 92.543L23.0347 91.4958L22.7678 91.4342L21.3666 91.2494L20.6994 90.9414L19.2316 89.7094L18.4976 89.6478L17.5635 90.387L17.1632 91.3726L17.0965 92.235L17.0297 92.6046V93.0358L16.7628 94.1447L16.1624 95.3767L15.295 96.2391L14.6278 96.3007L12.893 95.6231L12.2258 95.4383L5.01983 95.4999L4.019 95.3767Z" stroke="white" stroke-width="0.5" stroke-linecap="round" stroke-linejoin="round"/>
<path d="M4.019 95.3767V95.3151L4.08573 94.6375L4.15245 92.6662L3.81884 91.9886L2.75129 90.9414L1.35013 89.0317L0.616211 85.1508L2.48441 80.5923L4.08573 79.6067L5.28673 76.8962L8.55609 76.0338L9.42346 75.9106H10.6912L11.4251 76.0338L13.8271 77.0194L14.1607 75.9106L14.4276 75.4177L14.6945 74.7402L14.7612 73.9393L14.561 72.3993L15.0948 72.0297L16.1624 71.9681L18.5643 72.9537L19.7653 73.8777L21.5668 75.7258L22.8345 76.2186H24.5026L29.1731 74.5553L30.2406 74.0009L31.2415 71.6601L31.5084 72.6457L31.6418 73.0769L31.7752 73.6313L32.1088 74.0625L32.6426 74.3705L33.3098 74.2473L33.9103 73.6929L34.6443 72.2145L35.1113 70.6128L35.3115 69.2576L35.2448 67.5327L35.7118 67.1631L36.5125 67.2247L38.0471 68.3336L38.5809 69.6272L39.0479 71.044L39.1146 72.2761L39.5817 73.0769L40.4491 73.6313L41.4499 73.8161L42.1838 73.6929L42.384 73.0153L41.9837 72.9537L41.5166 72.7073L41.1163 72.3993L41.7835 71.4752L42.4507 70.736L49.1229 66.5471L50.7909 68.3952L51.1245 70.5512L53.1262 73.2617L54.2605 74.0009L56.6624 74.4321L60.7992 75.1713L62.2003 74.5553L63.2012 73.6313L64.0685 72.5225L66.3371 71.044L68.2053 70.3664L71.4746 69.7504L72.6089 69.3192L73.2761 68.6416V67.2863L73.2094 66.7935L73.076 66.3623L72.8758 65.9311V65.3151L73.0093 64.5759L79.4145 55.582L82.2836 53.8572L83.5513 51.7627L83.6847 49.9146L85.1526 47.3274L88.2218 44.3705L91.0908 40.12L90.7572 33.7134L93.5595 31.0645L95.2943 26.506L95.6946 24.658L96.0282 20.9618L96.6287 19.7914L99.1642 17.2657L100.565 16.1569L103.434 14.3089L105.569 13.2616L108.172 11.66L104.769 7.59429L104.835 4.6374L106.57 2.66615L109.106 0.263672L120.515 6.23904L126.32 10.6744L128.588 11.968L129.99 13.4465L131.057 14.1241L131.925 14.4937L132.725 14.6785L133.459 14.7401L134.26 14.6785H135.261L136.328 14.8017L138.997 15.6641L141.666 15.9721L142.733 18.929L145.936 21.9475L148.939 24.1035L153.609 26.506L156.211 27.4916L157.212 27.738H158.146L159.08 27.43L160.615 26.6908L162.149 26.0748L166.353 28.1693L168.021 29.9557L168.822 31.1261L169.089 33.0974L169.489 34.7606L170.556 35.9311L170.957 36.9167V38.8879L171.157 39.9968L171.624 41.4752L171.824 42.3376L171.424 43.8161L170.356 45.3561L171.157 48.313L172.892 49.1138L178.296 49.9146L179.163 50.4691L180.431 51.4547L181.899 53.6724L183.033 54.9044L183.834 55.3356L184.902 55.5204L185.635 56.0132L186.57 57.1221L188.304 58.1077L189.639 60.3253L190.039 61.4958L191.907 64.8839L192.308 65.8079L193.042 69.7504L194.243 72.2145L195.243 73.2001L196.244 73.6929L199.247 73.0153L205.919 73.6313L207.587 74.0009L208.521 74.1241L215.193 73.6313L215.794 73.4465L216.461 73.0769L219.53 71.7833L221.265 79.1755L220.865 79.5451L220.331 79.8531L219.263 80.1611L218.93 80.7771L218.863 80.8387L177.829 83.0564L154.476 80.5923L134.126 70.7976L117.379 59.7093L111.308 58.8469L107.638 59.9557L105.036 61.8654L102.634 64.1446L99.6979 66.2391L96.3619 67.2247L89.6897 66.9783L86.4203 67.2863L80.3486 70.9208L75.8116 82.1324L71.2745 85.9516L64.4021 87.7381L43.8519 89.5861L32.4424 92.4198L28.5059 92.7894L26.7044 92.543L23.0347 91.4958L22.7678 91.4342L21.3666 91.2494L20.6994 90.9414L19.2316 89.7094L18.4976 89.6478L17.5635 90.387L17.1632 91.3726L17.0965 92.235L17.0297 92.6046V93.0358L16.7628 94.1447L16.1624 95.3767L15.295 96.2391L14.6278 96.3007L12.893 95.6231L12.2258 95.4383L5.01983 95.4999L4.019 95.3767Z" stroke="black" stroke-opacity="0.2" stroke-width="0.5" stroke-linecap="round" stroke-linejoin="round"/>
</svg>
