<svg width="109" height="161" viewBox="0 0 109 161" fill="none" xmlns="http://www.w3.org/2000/svg">
<path d="M73.3334 160.078L69.1967 160.571L64.7263 158.476L62.7247 157.059L58.0541 154.657L57.854 153.117L61.5904 148.558L71.7988 141.967L71.3985 140.427L70.4644 139.872L64.793 138.394L63.5253 138.764L62.7914 138.517L62.1909 137.778L61.5904 135.191L60.8565 133.158L59.7222 131.063L56.7197 128.969L56.653 128.353L56.4528 123.979L55.7856 123.117L54.6513 121.946L50.0475 119.359L51.382 114.246L51.1151 112.398L50.7148 110.92L49.9808 110.18L47.7123 109.38L46.9783 109.195L45.4437 108.517L44.176 106.484L44.4429 99.4618L45.7774 91.0224L45.9775 86.6486L46.3778 84.3078L47.779 81.3509L45.7774 80.4885L43.8424 78.8868L41.2403 74.0819L37.1703 68.9073L33.9676 66.0737L32.3663 65.1496L31.0986 64.78L28.2963 65.1496L33.2337 59.8519L30.5648 56.1558L30.2979 55.1086L29.9643 52.7061L29.8976 51.4741L30.2979 45.9915L26.8284 47.0387L24.2262 48.5172L22.358 48.8252L17.9544 49.0716L15.9528 49.9956L14.0178 51.1661L12.4832 51.4741L11.0821 51.2893L7.34565 50.0572L6.74516 49.6876L5.61089 48.6404L4.81023 48.2092L2.07464 47.5315L1.14054 47.1003L1.07381 46.1147L0.606765 44.0819H0.540039L0.740206 42.2954L1.20726 39.9545L2.07464 38.5993L2.47497 37.6137L3.4758 36.1968L4.54334 35.396L6.27811 34.7184L6.41155 34.6568L7.81271 33.6096L8.88025 32.0079L9.68091 30.7759L11.2155 29.5439L11.816 29.1742L14.8185 27.8806L17.8877 25.7246H17.9544H18.0878L27.6291 19.5028L32.1661 15.4371L32.433 14.821L32.9668 13.7738L33.634 12.7882L35.9025 10.1393L37.1035 8.90728L37.7707 8.04486L38.6381 6.50482L39.4388 5.51919L40.3062 3.73274L40.84 2.3775L41.3737 1.33028L41.774 0.40625L42.8416 0.529452L44.3762 1.08387L49.3136 3.67114L51.5154 6.38161L52.583 12.7266L53.7172 14.513L56.1192 15.3755L60.5229 16.1763L61.0566 16.5459L60.9232 17.1003L59.6555 17.9627L58.7214 18.394L57.7205 19.01L56.8532 19.8108L50.648 27.3878L49.7807 28.8662L49.3803 29.8519L49.6472 31.3303L49.9808 32.3775L50.0475 33.6712L49.9141 35.1496L48.9133 39.1537L47.4454 40.7554L47.8457 41.9874L48.1793 42.4802L48.5797 43.0346L48.98 43.5274L49.447 43.9587L49.9141 44.2667L50.4479 44.5747L51.0484 44.8211L51.6489 44.8827L52.3161 44.6979L53.5838 42.8498L54.7181 41.433L55.1184 40.817L56.3861 40.201L60.3227 40.4474L60.7897 42.665L62.0574 45.6835L62.391 47.1619L63.125 48.0244L63.7922 48.5788L70.5978 52.2133L73.3334 56.0942L73.7337 56.8334L74.6011 61.3919L74.7346 65.1496L74.1341 67.4289V68.6609L74.6011 70.201L75.5352 71.9258L77.0031 73.6507L78.1374 75.3139L79.5385 78.394L80.4726 80.1189L82.9413 82.2749L85.1432 85.4166L90.0138 81.7821L97.4199 79.5028L98.6876 81.3509L101.69 85.5398L101.957 86.4638L102.958 87.5727L103.492 88.0039L107.829 88.5583L108.162 90.2215L108.095 91.2072L107.762 93.1168L107.095 95.4577L104.226 97.9218L94.8178 100.324L93.9504 103.836L93.6835 107.347L95.0847 111.166L85.4768 118.928L86.8779 120.53L88.3458 121.515L88.8796 121.762L89.2132 122.193V124.164L88.8796 126.197V137.593L86.8112 137.224L85.3433 141.228L84.1423 143.076L82.6077 144.493L81.4735 145.109L79.4718 145.848L78.471 146.341L77.5369 146.957L76.6695 148.374L75.7354 150.653L75.0682 155.027L73.3334 160.078Z" fill="white"/>
<path d="M73.3334 160.078L69.1967 160.571L64.7263 158.476L62.7247 157.059L58.0541 154.657L57.854 153.117L61.5904 148.558L71.7988 141.967L71.3985 140.427L70.4644 139.872L64.793 138.394L63.5253 138.764L62.7914 138.517L62.1909 137.778L61.5904 135.191L60.8565 133.158L59.7222 131.063L56.7197 128.969L56.653 128.353L56.4528 123.979L55.7856 123.117L54.6513 121.946L50.0475 119.359L51.382 114.246L51.1151 112.398L50.7148 110.92L49.9808 110.18L47.7123 109.38L46.9783 109.195L45.4437 108.517L44.176 106.484L44.4429 99.4618L45.7774 91.0224L45.9775 86.6486L46.3778 84.3078L47.779 81.3509L45.7774 80.4885L43.8424 78.8868L41.2403 74.0819L37.1703 68.9073L33.9676 66.0737L32.3663 65.1496L31.0986 64.78L28.2963 65.1496L33.2337 59.8519L30.5648 56.1558L30.2979 55.1086L29.9643 52.7061L29.8976 51.4741L30.2979 45.9915L26.8284 47.0387L24.2262 48.5172L22.358 48.8252L17.9544 49.0716L15.9528 49.9956L14.0178 51.1661L12.4832 51.4741L11.0821 51.2893L7.34565 50.0572L6.74516 49.6876L5.61089 48.6404L4.81023 48.2092L2.07464 47.5315L1.14054 47.1003L1.07381 46.1147L0.606765 44.0819H0.540039L0.740206 42.2954L1.20726 39.9545L2.07464 38.5993L2.47497 37.6137L3.4758 36.1968L4.54334 35.396L6.27811 34.7184L6.41155 34.6568L7.81271 33.6096L8.88025 32.0079L9.68091 30.7759L11.2155 29.5439L11.816 29.1742L14.8185 27.8806L17.8877 25.7246H17.9544H18.0878L27.6291 19.5028L32.1661 15.4371L32.433 14.821L32.9668 13.7738L33.634 12.7882L35.9025 10.1393L37.1035 8.90728L37.7707 8.04486L38.6381 6.50482L39.4388 5.51919L40.3062 3.73274L40.84 2.3775L41.3737 1.33028L41.774 0.40625L42.8416 0.529452L44.3762 1.08387L49.3136 3.67114L51.5154 6.38161L52.583 12.7266L53.7172 14.513L56.1192 15.3755L60.5229 16.1763L61.0566 16.5459L60.9232 17.1003L59.6555 17.9627L58.7214 18.394L57.7205 19.01L56.8532 19.8108L50.648 27.3878L49.7807 28.8662L49.3803 29.8519L49.6472 31.3303L49.9808 32.3775L50.0475 33.6712L49.9141 35.1496L48.9133 39.1537L47.4454 40.7554L47.8457 41.9874L48.1793 42.4802L48.5797 43.0346L48.98 43.5274L49.447 43.9587L49.9141 44.2667L50.4479 44.5747L51.0484 44.8211L51.6489 44.8827L52.3161 44.6979L53.5838 42.8498L54.7181 41.433L55.1184 40.817L56.3861 40.201L60.3227 40.4474L60.7897 42.665L62.0574 45.6835L62.391 47.1619L63.125 48.0244L63.7922 48.5788L70.5978 52.2133L73.3334 56.0942L73.7337 56.8334L74.6011 61.3919L74.7346 65.1496L74.1341 67.4289V68.6609L74.6011 70.201L75.5352 71.9258L77.0031 73.6507L78.1374 75.3139L79.5385 78.394L80.4726 80.1189L82.9413 82.2749L85.1432 85.4166L90.0138 81.7821L97.4199 79.5028L98.6876 81.3509L101.69 85.5398L101.957 86.4638L102.958 87.5727L103.492 88.0039L107.829 88.5583L108.162 90.2215L108.095 91.2072L107.762 93.1168L107.095 95.4577L104.226 97.9218L94.8178 100.324L93.9504 103.836L93.6835 107.347L95.0847 111.166L85.4768 118.928L86.8779 120.53L88.3458 121.515L88.8796 121.762L89.2132 122.193V124.164L88.8796 126.197V137.593L86.8112 137.224L85.3433 141.228L84.1423 143.076L82.6077 144.493L81.4735 145.109L79.4718 145.848L78.471 146.341L77.5369 146.957L76.6695 148.374L75.7354 150.653L75.0682 155.027L73.3334 160.078Z" stroke="white" stroke-width="0.5" stroke-linecap="round" stroke-linejoin="round"/>
<path d="M73.3334 160.078L69.1967 160.571L64.7263 158.476L62.7247 157.059L58.0541 154.657L57.854 153.117L61.5904 148.558L71.7988 141.967L71.3985 140.427L70.4644 139.872L64.793 138.394L63.5253 138.764L62.7914 138.517L62.1909 137.778L61.5904 135.191L60.8565 133.158L59.7222 131.063L56.7197 128.969L56.653 128.353L56.4528 123.979L55.7856 123.117L54.6513 121.946L50.0475 119.359L51.382 114.246L51.1151 112.398L50.7148 110.92L49.9808 110.18L47.7123 109.38L46.9783 109.195L45.4437 108.517L44.176 106.484L44.4429 99.4618L45.7774 91.0224L45.9775 86.6486L46.3778 84.3078L47.779 81.3509L45.7774 80.4885L43.8424 78.8868L41.2403 74.0819L37.1703 68.9073L33.9676 66.0737L32.3663 65.1496L31.0986 64.78L28.2963 65.1496L33.2337 59.8519L30.5648 56.1558L30.2979 55.1086L29.9643 52.7061L29.8976 51.4741L30.2979 45.9915L26.8284 47.0387L24.2262 48.5172L22.358 48.8252L17.9544 49.0716L15.9528 49.9956L14.0178 51.1661L12.4832 51.4741L11.0821 51.2893L7.34565 50.0572L6.74516 49.6876L5.61089 48.6404L4.81023 48.2092L2.07464 47.5315L1.14054 47.1003L1.07381 46.1147L0.606765 44.0819H0.540039L0.740206 42.2954L1.20726 39.9545L2.07464 38.5993L2.47497 37.6137L3.4758 36.1968L4.54334 35.396L6.27811 34.7184L6.41155 34.6568L7.81271 33.6096L8.88025 32.0079L9.68091 30.7759L11.2155 29.5439L11.816 29.1742L14.8185 27.8806L17.8877 25.7246H17.9544H18.0878L27.6291 19.5028L32.1661 15.4371L32.433 14.821L32.9668 13.7738L33.634 12.7882L35.9025 10.1393L37.1035 8.90728L37.7707 8.04486L38.6381 6.50482L39.4388 5.51919L40.3062 3.73274L40.84 2.3775L41.3737 1.33028L41.774 0.40625L42.8416 0.529452L44.3762 1.08387L49.3136 3.67114L51.5154 6.38161L52.583 12.7266L53.7172 14.513L56.1192 15.3755L60.5229 16.1763L61.0566 16.5459L60.9232 17.1003L59.6555 17.9627L58.7214 18.394L57.7205 19.01L56.8532 19.8108L50.648 27.3878L49.7807 28.8662L49.3803 29.8519L49.6472 31.3303L49.9808 32.3775L50.0475 33.6712L49.9141 35.1496L48.9133 39.1537L47.4454 40.7554L47.8457 41.9874L48.1793 42.4802L48.5797 43.0346L48.98 43.5274L49.447 43.9587L49.9141 44.2667L50.4479 44.5747L51.0484 44.8211L51.6489 44.8827L52.3161 44.6979L53.5838 42.8498L54.7181 41.433L55.1184 40.817L56.3861 40.201L60.3227 40.4474L60.7897 42.665L62.0574 45.6835L62.391 47.1619L63.125 48.0244L63.7922 48.5788L70.5978 52.2133L73.3334 56.0942L73.7337 56.8334L74.6011 61.3919L74.7346 65.1496L74.1341 67.4289V68.6609L74.6011 70.201L75.5352 71.9258L77.0031 73.6507L78.1374 75.3139L79.5385 78.394L80.4726 80.1189L82.9413 82.2749L85.1432 85.4166L90.0138 81.7821L97.4199 79.5028L98.6876 81.3509L101.69 85.5398L101.957 86.4638L102.958 87.5727L103.492 88.0039L107.829 88.5583L108.162 90.2215L108.095 91.2072L107.762 93.1168L107.095 95.4577L104.226 97.9218L94.8178 100.324L93.9504 103.836L93.6835 107.347L95.0847 111.166L85.4768 118.928L86.8779 120.53L88.3458 121.515L88.8796 121.762L89.2132 122.193V124.164L88.8796 126.197V137.593L86.8112 137.224L85.3433 141.228L84.1423 143.076L82.6077 144.493L81.4735 145.109L79.4718 145.848L78.471 146.341L77.5369 146.957L76.6695 148.374L75.7354 150.653L75.0682 155.027L73.3334 160.078Z" stroke="black" stroke-opacity="0.2" stroke-width="0.5" stroke-linecap="round" stroke-linejoin="round"/>
</svg>
