<svg width="61" height="70" viewBox="0 0 61 70" fill="none" xmlns="http://www.w3.org/2000/svg">
<path d="M56.7695 1.59434L60.1723 5.66004L57.5702 7.26168L55.4351 8.30892L52.5661 10.157L51.1649 11.2658L48.6295 13.7915L48.029 14.9619L47.6954 18.658L47.2951 20.5061L45.5603 25.0646L42.758 27.7135L43.0916 34.12L40.2226 38.3705L37.1534 41.3274L35.6855 43.9147L35.552 45.7627L34.2843 47.8572L31.4153 49.5821L25.01 58.5759L24.8766 59.3151V59.9311L25.0767 60.3624L25.2102 60.7936L25.2769 61.2864V62.6416L24.6097 63.3192L23.4754 63.7505L20.2061 64.3665L18.3379 65.0441L16.0693 66.5225L15.2019 67.6314L14.2011 68.5554L12.7999 69.1714L8.66321 68.4322L6.26123 68.001L5.12695 67.2617L3.1253 64.5513L2.79169 62.3952L1.12365 60.5472V60.0544L0.790039 58.3911V57.6519L1.12365 55.927L1.05692 55.0646L1.65743 53.771L4.86007 52.1077L6.52811 49.2124L9.33043 46.2556L11.0652 41.2658L11.1319 35.8449V35.2289L11.9326 29.3767L12.1327 25.1878L10.7316 23.4629L11.7324 20.3213L10.865 14.1611L10.5981 1.28633L14.3346 0.362305L23.6089 4.1816L26.0776 4.55121L32.4161 4.05841L35.085 3.25757H35.9524L36.6863 3.56558L39.2885 5.66004L41.2234 6.64567L42.9582 8.18571L48.1624 5.53684L52.1657 4.36642L56.7695 1.59434Z" fill="white"/>
<path d="M56.7695 1.59434L60.1723 5.66004L57.5702 7.26168L55.4351 8.30892L52.5661 10.157L51.1649 11.2658L48.6295 13.7915L48.029 14.9619L47.6954 18.658L47.2951 20.5061L45.5603 25.0646L42.758 27.7135L43.0916 34.12L40.2226 38.3705L37.1534 41.3274L35.6855 43.9147L35.552 45.7627L34.2843 47.8572L31.4153 49.5821L25.01 58.5759L24.8766 59.3151V59.9311L25.0767 60.3624L25.2102 60.7936L25.2769 61.2864V62.6416L24.6097 63.3192L23.4754 63.7505L20.2061 64.3665L18.3379 65.0441L16.0693 66.5225L15.2019 67.6314L14.2011 68.5554L12.7999 69.1714L8.66321 68.4322L6.26123 68.001L5.12695 67.2617L3.1253 64.5513L2.79169 62.3952L1.12365 60.5472V60.0544L0.790039 58.3911V57.6519L1.12365 55.927L1.05692 55.0646L1.65743 53.771L4.86007 52.1077L6.52811 49.2124L9.33043 46.2556L11.0652 41.2658L11.1319 35.8449V35.2289L11.9326 29.3767L12.1327 25.1878L10.7316 23.4629L11.7324 20.3213L10.865 14.1611L10.5981 1.28633L14.3346 0.362305L23.6089 4.1816L26.0776 4.55121L32.4161 4.05841L35.085 3.25757H35.9524L36.6863 3.56558L39.2885 5.66004L41.2234 6.64567L42.9582 8.18571L48.1624 5.53684L52.1657 4.36642L56.7695 1.59434Z" stroke="white" stroke-width="0.5" stroke-linecap="round" stroke-linejoin="round"/>
<path d="M56.7695 1.59434L60.1723 5.66004L57.5702 7.26168L55.4351 8.30892L52.5661 10.157L51.1649 11.2658L48.6295 13.7915L48.029 14.9619L47.6954 18.658L47.2951 20.5061L45.5603 25.0646L42.758 27.7135L43.0916 34.12L40.2226 38.3705L37.1534 41.3274L35.6855 43.9147L35.552 45.7627L34.2843 47.8572L31.4153 49.5821L25.01 58.5759L24.8766 59.3151V59.9311L25.0767 60.3624L25.2102 60.7936L25.2769 61.2864V62.6416L24.6097 63.3192L23.4754 63.7505L20.2061 64.3665L18.3379 65.0441L16.0693 66.5225L15.2019 67.6314L14.2011 68.5554L12.7999 69.1714L8.66321 68.4322L6.26123 68.001L5.12695 67.2617L3.1253 64.5513L2.79169 62.3952L1.12365 60.5472V60.0544L0.790039 58.3911V57.6519L1.12365 55.927L1.05692 55.0646L1.65743 53.771L4.86007 52.1077L6.52811 49.2124L9.33043 46.2556L11.0652 41.2658L11.1319 35.8449V35.2289L11.9326 29.3767L12.1327 25.1878L10.7316 23.4629L11.7324 20.3213L10.865 14.1611L10.5981 1.28633L14.3346 0.362305L23.6089 4.1816L26.0776 4.55121L32.4161 4.05841L35.085 3.25757H35.9524L36.6863 3.56558L39.2885 5.66004L41.2234 6.64567L42.9582 8.18571L48.1624 5.53684L52.1657 4.36642L56.7695 1.59434Z" stroke="black" stroke-opacity="0.2" stroke-width="0.5" stroke-linecap="round" stroke-linejoin="round"/>
</svg>
